<?xml version="1.0" encoding="utf-8"?>
<!-- Generator: Adobe Illustrator 22.0.1, SVG Export Plug-In . SVG Version: 6.00 Build 0)  -->
<svg version="1.1" id="Layer_1" xmlns="http://www.w3.org/2000/svg" xmlns:xlink="http://www.w3.org/1999/xlink" x="0px" y="0px"
	 viewBox="0 0 360 360" style="enable-background:new 0 0 360 360;" xml:space="preserve">
<style type="text/css">
	.st0{fill:#FFFFFF;}
</style>
<g>
	<path class="st0" d="M282.5,240C264,260.8,237,273.9,207,273.9c-55.8,0-101-45.2-101-101s45.2-101,101-101c5.9,0,11.8,0.5,17.4,1.5
		l-0.7-14.8l-29.5-6.7l-9.5,19l-15.2,0.8L158,54.4l-28,9l0.5,20.7l-12.8,8.3l-18.3-9.5l-20.3,21.8l11.3,17.8l-7.3,13.8L62,136.9
		l-6.5,29l18.5,9.8l0.3,15.3l-17,11l8.3,28.8l20.5-0.5l9.3,14.5l-9.5,20.2l22.8,19.3l17-11.5l20,9.8l2.5,20.5l30.1,5.3l7.9-19
		l15.5-1.3l12,16.5l28-10.5l-2-20.8l13-8.5l18,8.3l19.3-22.2L282.5,240z"/>
	<path class="st0" d="M267.2,235.4c9.1-12.1,14.5-27.2,14.5-43.6c0-40.1-32.5-72.5-72.5-72.5s-72.5,32.5-72.5,72.5
		c0,10,2,19.6,5.7,28.3l-10.6,1.3l-8.5-19.5l11.8-9.5l-1.5-11.3l-14.3-5.3l2-21.5l14.8-2.5l4.3-10.8l-9.5-11.5l12.5-17.3l14,4.8
		l13-9.5l-1.8-15.3l19.5-8.3l10,12.3l12.5-0.8l7-13.8l20.8,3.8l1.5,14.5l10,4.8l12.5-8.3l16.3,13.3l-5.5,13.8l6,8.8l15-1l7.8,19.8
		l-12,9l1.3,11.3l13.5,6.3l-3,21l-14.8,1.8l-4.5,10l8.8,12.3l-12.8,17L267.2,235.4z"/>
	<path class="st0" d="M152,219c9.1,13.6,24.6,22.5,42.1,22.5c28,0,50.6-22.7,50.6-50.6s-22.7-50.6-50.6-50.6c-1.3,0-2.6,0.1-3.9,0.1
		l1.8-6.5l15.3-1.3l3,8.5l8.3,2.8l6.8-8l13.3,6.5l-1.8,10l5.5,5.3l10-3.5l8.8,12l-6.3,7.8l3.8,11.3l10.3,1.9l0.8,15.2l-10.7,3.7
		l-1.7,8.3l7.2,7.3l-7.2,13l-10.3-2.2l-5.3,5.3l2.8,9.8l-12.8,8l-7.5-7l-7.5,2.3l-2.3,10.2h-15l-3.3-9.5l-7.8-2l-7.3,7.5l-13-6.7
		l2.5-10.8l-6.5-4.8l-9.5,3.3l-8.3-12.8L152,219z"/>
</g>
</svg>
